<svg viewBox="0 0 1400 400" xmlns="http://www.w3.org/2000/svg"><svg width="400" height="400" viewBox="0 0 200 200"><path d="M0 0h200v200H0z"/><radialGradient id="a" cx="100" cy="100" r="100" gradientUnits="userSpaceOnUse"><stop offset="0%" stop-color="#111"/><stop offset="100%"/></radialGradient><path fill="url(#a)" d="M0 0h200v200H0z"/><circle cx="100" cy="100" r="60" stroke="#fff" stroke-width="5" fill="none"/><circle cx="160" cy="100" r="9" fill="#fff"><animateTransform attributeName="transform" attributeType="XML" type="rotate" from="0 100 100" to="-360 100 100" dur="8s" repeatCount="indefinite"/></circle><circle cx="100" cy="100" r="73" stroke="#fff" fill="none" opacity=".7"/><circle cx="100" cy="100" r="68" stroke="#fff" stroke-width=".6" fill="none" opacity=".3"/><circle cx="100" cy="100" r="35" stroke="#fff" stroke-width="3" fill="none" stroke-dasharray="3 7"><animateTransform attributeName="transform" attributeType="XML" type="rotate" from="0 100 100" to="360 100 100" dur="6s" repeatCount="indefinite"/></circle><circle cx="100" cy="100" r="6" fill="#fff"><animate attributeName="r" values="6;8;6" dur="3s" repeatCount="indefinite" calcMode="spline" keySplines="0.42 0 0.58 1; 0.42 0 0.58 1" keyTimes="0; 0.5; 1"/></circle><circle cx="100" cy="100" r="8" fill="none" stroke="#fff" stroke-width=".5"><animate attributeName="r" values="7;12;7" dur="3.1s" repeatCount="indefinite" calcMode="spline" keySplines="0.42 0 0.58 1; 0.42 0 0.58 1" keyTimes="0; 0.5; 1"/></circle><circle cx="135" cy="100" r="5" fill="#fff"><animateTransform attributeName="transform" attributeType="XML" type="rotate" from="0 100 100" to="360 100 100" dur="6s" repeatCount="indefinite"/></circle></svg><svg x="-34" width="1800" height="400" viewBox="0 0 1900 800"><path d="M0 0h2710v800H0z"/><path d="m1571.855 254.741 4.21-.01c3.798-.01 7.596-.006 11.393 0 3.986.005 7.972 0 11.958-.002q10.042-.006 20.086.01 11.583.015 23.164-.003 9.968-.013 19.937-.006 5.943.007 11.885-.003 5.594-.007 11.187.01c2.007.004 4.013-.002 6.02-.008 18.836.087 32.755 5.797 46.778 18.513 4.629 4.717 7.907 9.793 10.902 15.633l.976 1.889c4.97 10.32 6.093 20.75 6.037 32.076q.006 2.013.016 4.026c.014 3.607.009 7.214-.001 10.822-.008 3.798 0 7.596.004 11.394a6165 6165 0 0 1-.016 19.124c-.016 7.341-.01 14.683.006 22.024q.02 9.501.007 19.002c-.004 3.77-.005 7.54.005 11.309q.012 5.319-.015 10.638a678 678 0 0 0 .013 5.704c-.138 18.93-6.735 34.047-19.595 47.804-11.37 10.902-25.982 17.407-41.774 17.453l-3.547.018-3.85.003-4.086.015q-5.535.019-11.071.024l-6.93.012q-10.862.02-21.723.027-12.5.007-25.001.05-9.687.034-19.374.034-5.775 0-11.549.025-5.437.023-10.876.01c-1.948-.002-3.896.012-5.844.026-17.444-.082-32.352-6.456-44.636-18.704-15.627-16.416-19.034-34.77-18.844-56.664q.009-2.867.013-5.733c.011-4.991.04-9.982.074-14.973.036-6.01.05-12.019.067-18.028.03-9.094.087-18.188.139-27.282h37l.078 17.55q.037 5.531.082 11.061c.048 5.842.092 11.683.111 17.525q.025 7.071.097 14.141.023 2.688.024 5.374c.01 9.806.176 18.355 4.608 27.349l.88 2.16c1.407 2.312 2.698 2.693 5.12 3.84l1.684 1.053c6.226 3.693 12.205 3.506 19.29 3.449l3.891.016c3.502.014 7.004.003 10.506-.014 3.678-.014 7.356-.007 11.034-.003q9.264.002 18.528-.034c7.122-.027 14.244-.029 21.366-.017q10.31.014 20.618-.01 4.372-.007 8.745 0c4.078.005 8.156-.014 12.234-.036l3.633.014c9.222-.082 17.02-1.209 23.967-7.672 4.783-5.553 6.618-11.886 6.651-19.095l.022-3.288.008-3.592.02-3.795q.028-6.227.041-12.453l.013-4.297q.029-10.1.041-20.199.015-11.63.077-23.261.044-9.007.048-18.014c.002-3.58.011-7.16.036-10.741.028-4.002.024-8.004.017-12.006l.039-3.555c-.054-8.48-1.378-15.66-6.884-22.325-6.058-4.904-11.252-8.369-19.184-8.386l-3.351-.021-3.648.007-3.865-.015a2300 2300 0 0 0-10.475-.012q-4.38 0-8.76-.008-10.338-.016-20.676-.006c-7.098.006-14.195-.006-21.293-.027q-9.156-.026-18.311-.02c-3.641.001-7.282-.001-10.923-.015-4.065-.015-8.129-.006-12.193.006l-3.63-.023c-8.311.052-15.472.92-21.937 6.75-4.536 5.41-6.471 11.968-8.379 18.645h-37c1.594-19.133 7.657-32.404 21-46l1.863-1.938c11.587-11.115 25.5-14.369 40.992-14.32M100 255c25.33-.09 50.661-.164 75.992-.207q17.643-.028 35.287-.095 15.384-.06 30.767-.074a3842 3842 0 0 0 16.281-.047 2359 2359 0 0 1 15.348-.03q2.805 0 5.61-.024c18.766-.147 35.596 3.842 49.66 17.262 11.174 12.045 18.375 26.566 18.356 43.106l.013 2.502q.008 2.607.002 5.214c-.003 2.622.02 5.243.045 7.866.073 18.543-3.758 34.647-17.134 48.359L328 381l-1.79 1.887c-4.177 4.095-8.923 6.772-14.085 9.426l-1.963 1.023c-10.144 4.975-20.634 4.948-31.71 4.891h-4.644c-4.175.002-8.35-.01-12.525-.024-4.373-.013-8.747-.014-13.12-.016-8.27-.006-16.539-.023-24.808-.043-11.183-.027-22.367-.037-33.55-.049-17.602-.019-35.203-.059-52.805-.095v104h-37V361l41.719-.078q13.07-.036 26.14-.082c13.836-.049 27.67-.093 41.506-.111q15.114-.019 30.228-.084c5.335-.022 10.669-.038 16.004-.037q7.534 0 15.07-.05 2.76-.012 5.523-.004c2.52.007 5.039-.011 7.559-.035l2.193.023c6.818-.113 11.958-2.535 16.87-7.23 5.95-9.01 6.384-19.055 6.438-29.562l.063-2.988c.04-7.8-1.062-14.78-4.938-21.637-6.166-5.517-13.897-7.272-21.949-7.283l-2.359-.015c-2.616-.016-5.233-.024-7.849-.032l-5.617-.03q-7.635-.04-15.272-.068c-5.317-.022-10.634-.05-15.951-.076q-15.109-.074-30.217-.138-17.197-.076-34.396-.16-35.382-.17-70.765-.323zm352 0h37v210h210v37H452zm704 0h142v247h-37V292h-105zm-352 0h37l.028 17.39c.034 18.952.09 37.903.156 56.854.04 11.49.072 22.982.087 34.473q.019 15.026.084 30.05c.022 5.304.038 10.606.037 15.909q0 7.492.05 14.983.013 2.745.004 5.49c-.218 14.45-.218 14.45 6.343 26.937 8.474 5.95 17.059 7.357 27.25 7.426l3.051.054c3.178.054 6.356.088 9.535.122q3.255.05 6.512.103c5.287.087 10.575.147 15.863.209v37c-7.187.092-14.371.172-21.558.22q-3.66.03-7.32.082c-3.525.049-7.05.071-10.575.089l-3.26.062C843.703 502.46 825.133 485.444 809 470l-2.628-2.123c-3.101-3.762-3.058-6.788-2.973-11.45l-.013-2.612c-.008-2.887.019-5.773.046-8.66q.003-3.105-.002-6.209c-.001-5.62.028-11.239.063-16.858.031-5.872.034-11.745.04-17.617.016-11.12.057-22.241.107-33.361.056-12.66.083-25.32.108-37.98.053-26.044.142-52.087.252-78.13m211 0h36c.09 25.2.164 50.4.207 75.601q.028 17.553.095 35.105.06 15.304.074 30.61c.006 5.398.018 10.797.047 16.196q.039 7.635.03 15.27 0 2.79.024 5.58c.163 20.682-5.3 36.39-19.43 51.763-4.444 4.342-9.315 7.356-14.797 10.188l-1.875.986c-14.564 7.116-29.892 6.062-45.687 5.889q-3.597-.024-7.194-.042c-5.832-.03-11.662-.089-17.494-.146v-37l10.586-.043c3.41-.03 6.818-.07 10.227-.11a942 942 0 0 1 7.07-.043c3.402-.009 6.802-.05 10.203-.097l3.158.012c8.602-.169 15.287-2.477 21.631-8.406 6.57-10.241 6.708-19.9 6.67-31.706q.014-2.78.032-5.561c.028-5.008.031-10.015.03-15.023.004-5.242.03-10.484.052-15.727.041-9.916.061-19.832.074-29.748.016-11.294.055-22.588.095-33.882.082-23.222.134-46.444.172-69.666m319 0h69v36h-69zm-249 211h37v36h-37zm-704 0h37v36h-37zm1409 0h36v36h-36zm-352 0h36v36h-36zm-705 0h36v36h-36z" fill="#fff"/></svg></svg>